HIERARCHY
ROOT joint_Root
{
	OFFSET 0.0 0.0 0.0
	CHANNELS 6 Xposition Yposition Zposition Zrotation Xrotation Yrotation 
	JOINT Hips
	{
		OFFSET -17.1583 93.1646 452.98
		CHANNELS 6 Xposition Yposition Zposition Zrotation Xrotation Yrotation 
		JOINT Spine
		{
			OFFSET 15.7357 0.0 0.0
			CHANNELS 6 Xposition Yposition Zposition Zrotation Xrotation Yrotation 
			JOINT Chest
			{
				OFFSET 8.98455 -0.406207 0.0
				CHANNELS 6 Xposition Yposition Zposition Zrotation Xrotation Yrotation 
				JOINT Neck
				{
					OFFSET 16.3773 0.0 0.0
					CHANNELS 6 Xposition Yposition Zposition Zrotation Xrotation Yrotation 
					JOINT Head
					{
						OFFSET 6.45672 0.0 0.0
						CHANNELS 6 Xposition Yposition Zposition Zrotation Xrotation Yrotation 
						End Site
						{
							OFFSET 0.0 0.0 0.0
						}
					}
				}
				JOINT Shoulder_L
				{
					OFFSET 12.9942 -0.242716 4.98039
					CHANNELS 6 Xposition Yposition Zposition Zrotation Xrotation Yrotation 
					JOINT UpperArm_L
					{
						OFFSET 5.34809 0.0 0.0
						CHANNELS 6 Xposition Yposition Zposition Zrotation Xrotation Yrotation 
						JOINT LowerArm_L
						{
							OFFSET 24.3286 1.87007e-05 0.0
							CHANNELS 6 Xposition Yposition Zposition Zrotation Xrotation Yrotation 
							JOINT Hand_L
							{
								OFFSET 22.2916 0.0 0.0
								CHANNELS 6 Xposition Yposition Zposition Zrotation Xrotation Yrotation 
								End Site
								{
									OFFSET 0.0 0.0 0.0
								}
							}
						}
					}
				}
				JOINT Shoulder_R
				{
					OFFSET 12.9945 -0.242716 -4.98039
					CHANNELS 6 Xposition Yposition Zposition Zrotation Xrotation Yrotation 
					JOINT UpperArm_R
					{
						OFFSET -5.34813 0.0 0.0
						CHANNELS 6 Xposition Yposition Zposition Zrotation Xrotation Yrotation 
						JOINT LowerArm_R
						{
							OFFSET -24.3289 0.000322201 0.0
							CHANNELS 6 Xposition Yposition Zposition Zrotation Xrotation Yrotation 
							JOINT Hand_R
							{
								OFFSET -22.2915 -0.000108084 0.0
								CHANNELS 6 Xposition Yposition Zposition Zrotation Xrotation Yrotation 
								End Site
								{
									OFFSET 0.0 0.0 0.0
								}
							}
						}
					}
				}
			}
		}
		JOINT UpperLeg_L
		{
			OFFSET -2.19248 -6.46944 0.0
			CHANNELS 6 Xposition Yposition Zposition Zrotation Xrotation Yrotation 
			JOINT LowerLeg_L
			{
				OFFSET 39.0811 0.0 -1.23785e-05
				CHANNELS 6 Xposition Yposition Zposition Zrotation Xrotation Yrotation 
				JOINT Foot_L
				{
					OFFSET 40.9854 0.0 -1.26872e-05
					CHANNELS 6 Xposition Yposition Zposition Zrotation Xrotation Yrotation 
					JOINT Toes_L
					{
						OFFSET 11.7543 0.0 0.0
						CHANNELS 6 Xposition Yposition Zposition Zrotation Xrotation Yrotation 
						End Site
						{
							OFFSET 0.0 0.0 0.0
						}
					}
				}
			}
		}
		JOINT UpperLeg_R
		{
			OFFSET -2.19251 6.46944 0.0
			CHANNELS 6 Xposition Yposition Zposition Zrotation Xrotation Yrotation 
			JOINT LowerLeg_R
			{
				OFFSET -39.0811 -0.00228153 -0.0401928
				CHANNELS 6 Xposition Yposition Zposition Zrotation Xrotation Yrotation 
				JOINT Foot_R
				{
					OFFSET -40.9854 0.0 0.0
					CHANNELS 6 Xposition Yposition Zposition Zrotation Xrotation Yrotation 
					JOINT Toes_R
					{
						OFFSET -11.7543 0.0 0.0
						CHANNELS 6 Xposition Yposition Zposition Zrotation Xrotation Yrotation 
						End Site
						{
							OFFSET 0.0 0.0 0.0
						}
					}
				}
			}
		}
	}
}
MOTION
Frames:	4
Frame Time:	0.0333333
0.000000 0.000000 0.000000 0.000000 0.000000 -0.000000 -2.222910 92.466100 -2.361590 86.963600 1.418110 6.667110 15.735700 0.000005 -0.000001 84.547800 85.818500 -83.373000 8.984550 -0.406207 -0.000000 0.569285 -0.868123 2.352270 16.377300 -0.000001 -0.000001 10.284300 1.548280 -1.488850 6.456720 -0.000001 -0.000000 -4.203230 0.309641 3.380340 12.994200 -0.242716 4.980390 -93.396800 9.606170 -70.420600 5.348090 -0.000007 -0.000001 -71.877500 15.628700 -0.721333 24.328600 0.000019 0.000005 11.953000 25.095200 -26.525600 22.291600 -0.000001 0.000005 -5.946340 4.969010 7.972480 12.994500 -0.242716 -4.980390 87.241200 7.516800 -69.778200 -5.348130 -0.000001 -0.000004 -68.521900 32.800100 -5.592230 -24.328900 0.000322 -0.000009 1.304320 4.778940 -15.297000 -22.291500 -0.000108 -0.000004 -1.942010 5.293410 0.256425 -2.192480 -6.469440 -0.000000 -176.967000 3.165040 -0.792923 39.081100 -0.000007 -0.000012 0.275896 -0.608686 24.383600 40.985400 -0.000006 -0.000013 1.687170 5.010480 -72.422000 11.754300 -0.000000 0.000003 -0.000323 0.172889 -9.564220 -2.192510 6.469440 -0.000001 -174.112000 9.829910 -175.011000 -39.081100 -0.002282 -0.040193 0.106138 -0.369230 15.559500 -40.985400 0.000008 0.000006 4.158700 2.576210 -70.287200 -11.754300 -0.000006 -0.000006 -0.010870 0.277696 -5.289500
0.000000 0.000000 0.000000 0.000000 0.000000 -0.000000 -2.311790 92.460300 -2.336480 86.955700 1.364120 6.625280 15.735700 0.000005 -0.000001 84.449400 85.822700 -83.257500 8.984550 -0.406207 -0.000000 0.559780 -0.882760 2.386390 16.377300 -0.000001 -0.000001 10.112100 1.526310 -1.521340 6.456720 -0.000001 -0.000000 -4.374510 0.317807 2.965440 12.994200 -0.242716 4.980390 -93.455100 9.764860 -70.405600 5.348090 -0.000007 -0.000001 -71.649500 12.181900 -0.425962 24.328600 0.000019 0.000005 12.824300 24.062700 -29.175500 22.291600 -0.000001 0.000005 -6.652870 4.910560 9.166910 12.994500 -0.242716 -4.980390 87.244300 7.484990 -69.720900 -5.348130 -0.000001 -0.000004 -68.518800 32.853700 -5.597980 -24.328900 0.000322 -0.000009 1.273230 4.670830 -15.278400 -22.291500 -0.000108 -0.000004 -2.004840 5.292070 0.293549 -2.192480 -6.469440 -0.000000 -176.893000 3.164900 -0.826687 39.081100 -0.000007 -0.000012 0.277505 -0.611176 24.421100 40.985400 -0.000006 -0.000013 1.613240 4.983060 -72.526600 11.754300 -0.000000 0.000003 -0.000436 0.174673 -9.491760 -2.192510 6.469440 -0.000001 -174.022000 9.743590 -175.032000 -39.081100 -0.002282 -0.040193 0.106082 -0.369389 15.545000 -40.985400 0.000008 0.000006 4.171620 2.536830 -70.315200 -11.754300 -0.000006 -0.000006 -0.011322 0.280933 -5.157020
0.000000 0.000000 0.000000 0.000000 0.000000 -0.000000 -2.438240 92.458700 -2.351390 86.926200 1.418550 6.464250 15.735700 0.000005 -0.000001 84.054300 85.856800 -82.841300 8.984550 -0.406207 -0.000000 0.486947 -0.935103 2.428320 16.377300 -0.000001 -0.000001 9.837880 1.427210 -1.584400 6.456720 -0.000001 -0.000000 -4.620040 0.268758 2.397570 12.994200 -0.242716 4.980390 -93.500500 9.858030 -70.338700 5.348090 -0.000007 -0.000001 -71.412300 8.469520 0.055044 24.328600 0.000019 0.000005 14.369800 22.692800 -33.587500 22.291600 -0.000001 0.000005 -7.189610 4.865410 10.061000 12.994500 -0.242716 -4.980390 87.230000 7.509710 -69.685600 -5.348130 -0.000001 -0.000004 -68.491100 32.827700 -5.568160 -24.328900 0.000322 -0.000009 1.281430 4.686620 -15.322800 -22.291500 -0.000108 -0.000004 -2.011890 5.291420 0.311790 -2.192480 -6.469440 -0.000000 -176.786000 3.287060 -1.022680 39.081100 -0.000007 -0.000012 0.280101 -0.615794 24.459500 40.985400 -0.000006 -0.000013 1.515380 4.947490 -72.539000 11.754300 -0.000000 0.000003 -0.000469 0.175178 -9.471250 -2.192510 6.469440 -0.000001 -173.891000 9.785190 -175.189000 -39.081100 -0.002282 -0.040193 0.103666 -0.362104 15.487800 -40.985400 0.000008 0.000006 4.150160 2.558160 -70.235100 -11.754300 -0.000006 -0.000006 -0.011058 0.279049 -5.234140
0.000000 0.000000 0.000000 0.000000 0.000000 -0.000000 -2.545380 92.465800 -2.343210 86.924900 1.337500 6.274890 15.735700 0.000005 -0.000001 84.308700 85.895500 -83.053100 8.984550 -0.406207 -0.000000 0.413647 -0.894351 2.512780 16.377300 -0.000001 -0.000001 9.513850 1.303770 -1.752740 6.456720 -0.000001 -0.000000 -5.086650 0.048841 1.410670 12.994200 -0.242716 4.980390 -93.546200 9.905090 -70.187700 5.348090 -0.000007 -0.000001 -71.111500 5.486070 0.561075 24.328600 0.000019 0.000005 16.957800 21.495200 -39.764000 22.291600 -0.000001 0.000005 -7.110640 4.817200 10.990800 12.994500 -0.242716 -4.980390 87.232200 7.489650 -69.650200 -5.348130 -0.000001 -0.000004 -68.441700 32.720100 -5.567460 -24.328900 0.000322 -0.000009 1.316160 4.794880 -15.380500 -22.291500 -0.000108 -0.000004 -2.051870 5.296640 0.166521 -2.192480 -6.469440 -0.000000 -176.691000 3.282190 -1.190520 39.081100 -0.000007 -0.000012 0.273576 -0.602634 24.417000 40.985400 -0.000006 -0.000013 1.416110 4.896270 -72.538700 11.754300 -0.000000 0.000003 -0.000499 0.175635 -9.452690 -2.192510 6.469440 -0.000001 -173.798000 9.750150 -175.332000 -39.081100 -0.002282 -0.040193 0.100497 -0.352853 15.396300 -40.985400 0.000008 0.000006 4.118430 2.607750 -70.201800 -11.754300 -0.000006 -0.000006 -0.011140 0.279631 -5.210290
